<?xml version="1.0" encoding="UTF-8" standalone="no"?>
<svg
   xmlns:dc="http://purl.org/dc/elements/1.1/"
   xmlns:cc="http://creativecommons.org/ns#"
   xmlns:rdf="http://www.w3.org/1999/02/22-rdf-syntax-ns#"
   xmlns:svg="http://www.w3.org/2000/svg"
   xmlns="http://www.w3.org/2000/svg"
   id="svg8"
   version="1.1"
   viewBox="0 0 122.76665 121.44376"
   height="121.44376mm"
   width="122.76665mm">
  <g
     transform="translate(-45.905836,-140.91468)"
     id="layer1">
    <path
       d="m 49.213117,261.91953 c -1.231007,-0.64782 -2.268825,-1.70884 -2.805678,-2.86839 -0.465498,-1.00542 -0.490283,-2.26687 -0.495803,-25.23399 l -0.0058,-24.17567 6.120045,-17.6285 c 3.366025,-9.69568 6.332939,-18.05134 6.593142,-18.56813 0.651778,-1.29449 2.433275,-3.0177 3.807573,-3.68299 0.630165,-0.30505 1.843992,-0.669 2.697393,-0.80876 0.930783,-0.15243 14.308672,-0.25411 33.43393,-0.25411 19.125261,0 32.503151,0.10168 33.433931,0.25411 3.03322,0.49675 5.50906,2.30636 6.65076,4.86109 0.33527,0.75022 3.30009,9.1271 6.58849,18.61529 l 5.9789,17.25126 v 24.09839 c 0,26.08534 0.0656,24.8771 -1.44839,26.67268 -1.43181,1.69809 -2.22838,1.90663 -7.28286,1.90663 -4.96252,0 -5.69372,-0.17902 -7.19586,-1.76171 -1.2835,-1.35234 -1.53539,-2.3858 -1.53539,-6.29959 v -3.58037 H 98.557908 63.368325 v 3.58037 c 0,3.86978 -0.185135,4.65647 -1.448396,6.15467 -1.438246,1.70572 -2.220682,1.90788 -7.338459,1.89603 -3.6409,-0.008 -4.736612,-0.0959 -5.368353,-0.42831 z m 20.620423,-29.4242 c 1.792965,-0.79311 3.668475,-2.69389 4.5114,-4.57218 0.653008,-1.45509 0.715328,-1.849 0.616771,-3.89845 -0.09072,-1.88658 -0.241507,-2.52185 -0.874189,-3.68304 -1.581081,-2.90185 -4.415047,-4.61251 -7.634515,-4.6084 -3.097731,0.004 -5.760729,1.36231 -7.337452,3.74273 -4.048648,6.11234 0.501061,14.13227 7.750096,13.66136 0.977643,-0.0635 2.313194,-0.35242 2.967889,-0.64202 z m 64.83156,-0.2755 c 1.94177,-0.95593 3.10964,-2.17033 4.08251,-4.24516 0.97959,-2.08915 0.98034,-5.08066 0.002,-7.15582 -2.54406,-5.39509 -9.38202,-6.81143 -13.86821,-2.87251 -1.8502,1.6245 -2.78827,3.81445 -2.80074,6.53844 -0.0101,2.20745 0.67369,4.04967 2.08741,5.62368 2.86186,3.18635 6.73232,3.96483 10.49724,2.11137 z m 0.49383,-41.43119 -4.3666,-13.09688 H 98.557908 66.323488 l -4.366603,13.09688 -4.366604,13.09687 h 40.967627 40.967632 z m 12.61148,-21.16667 v -7.80521 h -7.80521 -7.80521 v -2.64583 -2.64583 h 7.80521 7.80521 v -7.80521 -7.80521 h 2.64583 2.64583 v 7.80521 7.80521 h 7.80521 7.80521 v 2.64583 2.64583 h -7.80521 -7.80521 v 7.80521 7.80521 h -2.64583 -2.64583 z"
       style="fill:white" />
  </g>
</svg>
