<?xml version="1.0" encoding="UTF-8" standalone="no"?>
<svg
   xmlns:dc="http://purl.org/dc/elements/1.1/"
   xmlns:cc="http://creativecommons.org/ns#"
   xmlns:rdf="http://www.w3.org/1999/02/22-rdf-syntax-ns#"
   xmlns:svg="http://www.w3.org/2000/svg"
   xmlns="http://www.w3.org/2000/svg"
   id="svg196335"
   version="1.1"
   viewBox="0 0 117.50124 117.52048"
   height="117.52048mm"
   width="117.50124mm">
  <g
     transform="translate(-40.272387,-145.19981)"
     id="layer1">
    <path
       id="path291529"
       d="m 40.316702,262.53992 c -0.19649,-0.31793 0.306959,-10.15788 0.599359,-11.7145 0.621408,-3.30814 3.301135,-5.70308 10.324169,-9.22694 5.640821,-2.83033 11.317011,-5.07371 21.866711,-8.64227 8.826196,-2.98556 9.818256,-3.55363 10.478995,-6.00042 0.377002,-1.39608 0.340735,-10.16625 -0.0481,-11.63236 -0.160348,-0.60458 -1.001123,-2.07982 -1.86839,-3.27831 -2.421535,-3.34634 -3.332615,-5.71927 -4.589153,-11.95253 -0.578273,-2.86861 -0.959778,-4.03424 -1.991725,-6.08542 -1.286507,-2.55715 -2.472814,-6.49854 -2.797193,-9.29339 -0.127699,-1.10026 -0.02802,-1.97051 0.400698,-3.49837 l 0.570683,-2.03379 -0.555747,-5.76205 c -0.614696,-6.37326 -0.556543,-7.79266 0.452879,-11.05371 2.293705,-7.41005 8.09381,-13.21481 15.689765,-15.70236 4.993216,-1.63519 12.491517,-1.93818 17.749367,-0.71722 9.05625,2.10301 15.68501,8.04875 18.3058,16.41958 1.01707,3.24853 1.07622,4.66869 0.46039,11.05371 l -0.55575,5.76205 0.57068,2.03379 c 0.42873,1.52786 0.5284,2.39811 0.4007,3.49837 -0.3231,2.78389 -1.51083,6.73653 -2.78602,9.2716 -1.04413,2.07573 -1.41106,3.21972 -2.09936,6.5453 -1.26905,6.13146 -2.12919,8.26732 -4.81513,11.95669 -0.69544,0.95525 -1.40102,2.28267 -1.56795,2.94981 -0.19423,0.77626 -0.27235,3.1102 -0.21697,6.48229 0.0808,4.91836 0.12606,5.33287 0.68005,6.22367 0.86699,1.39411 2.74334,2.27338 10.38669,4.86731 18.84954,6.39699 29.25854,11.72636 31.27977,16.01514 0.52153,1.1066 0.9378,5.08728 1.0505,10.04547 l 0.0812,3.57188 -58.655375,0.0667 c -34.251828,0.039 -58.716183,-0.0317 -58.801529,-0.16975 z"
       style="fill:white" />
  </g>
</svg>
