<?xml version="1.0" encoding="utf-8"?>
<!-- Generator: Adobe Illustrator 18.0.0, SVG Export Plug-In . SVG Version: 6.00 Build 0)  -->
<!DOCTYPE svg PUBLIC "-//W3C//DTD SVG 1.1//EN" "http://www.w3.org/Graphics/SVG/1.1/DTD/svg11.dtd">
<svg fill='white' version="1.1" id="Layer_1" xmlns="http://www.w3.org/2000/svg" xmlns:xlink="http://www.w3.org/1999/xlink" x="0px" y="0px"
	 viewBox="0 0 64 64" enable-background="new 0 0 64 64" xml:space="preserve">
<path d="M59.5,20.6h-0.8L54.1,7c-1-3-3.8-5-7-5H16.9c-3.2,0-6,2-7,5L5.3,20.6H4.5c-2.5,0-4.5,2-4.5,4.5v18.3C0,46,2,48,4.5,48H4v9
	c0,1.7,1.4,3,3,3h6c1.7,0,3-1.4,3-3v-9h32v9c0,1.7,1.4,3,3,3h6c1.7,0,3-1.4,3-3v-9h-0.5c2.5,0,4.5-2,4.5-4.5V25.2
	C64,22.7,62,20.6,59.5,20.6z M13.7,8.3C14.1,6.9,15.4,6,16.9,6h30.3c1.4,0,2.7,0.9,3.2,2.3L54.2,20H9.8L13.7,8.3z M12,40
	c-2.8,0-5-2.2-5-5s2.2-5,5-5s5,2.2,5,5S14.8,40,12,40z M51,40c-2.8,0-5-2.2-5-5s2.2-5,5-5s5,2.2,5,5S53.8,40,51,40z"/>
</svg>
